<?xml version="1.0" encoding="UTF-8" standalone="no"?>
<svg
   xmlns:dc="http://purl.org/dc/elements/1.1/"
   xmlns:cc="http://creativecommons.org/ns#"
   xmlns:rdf="http://www.w3.org/1999/02/22-rdf-syntax-ns#"
   xmlns:svg="http://www.w3.org/2000/svg"
   xmlns="http://www.w3.org/2000/svg"
   xmlns:sodipodi="http://sodipodi.sourceforge.net/DTD/sodipodi-0.dtd"
   xmlns:inkscape="http://www.inkscape.org/namespaces/inkscape"
   viewBox="0 0 48 48"
   x="0px"
   y="0px"
   id="svg2"
   version="1.1"
   inkscape:version="0.48.4 r9939"
   width="100%"
   height="100%"
   sodipodi:docname="noun_783551_cc.svg"
   inkscape:export-filename="C:\Users\STiM\Desktop\Downloads\noun_783551_cc.png"
   inkscape:export-xdpi="960"
   inkscape:export-ydpi="960">
  <metadata
     id="metadata14">
    <rdf:RDF>
      <cc:Work
         rdf:about="">
        <dc:format>image/svg+xml</dc:format>
        <dc:type
           rdf:resource="http://purl.org/dc/dcmitype/StillImage" />
        <dc:title></dc:title>
      </cc:Work>
    </rdf:RDF>
  </metadata>
  <defs
     id="defs12" />
  <sodipodi:namedview
     pagecolor="#ffffff"
     bordercolor="#666666"
     borderopacity="1"
     objecttolerance="10"
     gridtolerance="10"
     guidetolerance="10"
     inkscape:pageopacity="0"
     inkscape:pageshadow="2"
     inkscape:window-width="1366"
     inkscape:window-height="716"
     id="namedview10"
     showgrid="false"
     inkscape:showpageshadow="false"
     fit-margin-top="0"
     fit-margin-left="0"
     fit-margin-right="0"
     fit-margin-bottom="0"
     inkscape:zoom="3.9333333"
     inkscape:cx="-10.373099"
     inkscape:cy="27.311041"
     inkscape:window-x="-8"
     inkscape:window-y="-8"
     inkscape:window-maximized="1"
     inkscape:current-layer="svg2" />
  <path
     d="m 7.6148357,37.296369 2.7478983,0 0,-26.492775 -2.7478983,0 0,26.492775 z m 5.8076813,0 2.747898,0 0,-26.492775 -2.747898,0 0,26.492775 z m 5.929963,0 5.495795,0 0,-26.492775 -5.495795,0 0,26.492775 z m 8.725949,0 2.747898,0 0,-26.492775 -2.747898,0 0,26.492775 z m 6.269328,0 5.495796,0 0,-26.492775 -5.495796,0 0,26.492775 z M 43.847378,45 l -6.076977,0 0,-2.716372 6.076977,0 c 0.773533,0 1.404175,-0.737496 1.404175,-1.644764 l 0,-7.085656 2.747898,0 0,7.085656 C 47.999451,43.044212 46.137751,45 43.847378,45 z m -32.267738,-0.66714 -7.1678911,0 C 1.9798597,44.33286 -5e-7,42.49116 -5e-7,40.228422 l 0,-6.008615 2.7478977,0 0,6.008615 c 0,0.766017 0.7460542,1.388063 1.6638517,1.388063 l 7.1678911,0 0,2.716375 z m -8.8313306,-29.886068 -2.7478976763,0 0,-7.0856577 c 0,-2.4039889 1.8617005763,-4.3611346 4.1520739763,-4.3611346 l 6.0769753,0 0,2.7163719 -6.0769753,0 c -0.7735339,0 -1.4041763,0.7388536 -1.4041763,1.6447627 l 0,7.0856577 z M 48,13.77965 l -2.747897,0 0,-6.0072557 c 0,-0.766017 -0.746054,-1.3894248 -1.663853,-1.3894248 l -7.16789,0 0,-2.7163721 7.167891,0 C 46.021514,3.6665974 48,5.5082973 48,7.7723943 l 0,6.0072557 z"
     id="path4"
     inkscape:connector-curvature="0"
     style="fill:#000000;fill-rule:evenodd" />
</svg>
